<svg xmlns="http://www.w3.org/2000/svg" viewBox="0 0 45.98 401.89"><title>Blue Cap 1</title><g id="Layer_2" data-name="Layer 2"><g id="Layer_1-2" data-name="Layer 1"><path d="M1.72,130.19c.23,1.68.5,2.39.79,2.34C2.29,130.81,2,129.84,1.72,130.19Z" fill="#152d42"/><path d="M46,.06C39.77-.09,32.82,0,32.6,1.15c-1.14-.49-5.06-.14-6,.08l-9.1-.16c-2.95,0-5.93,0-11.21.05l3.18.32A5.19,5.19,0,0,1,5.9,2.62a41.4,41.4,0,0,1-.22,4.8A60.27,60.27,0,0,0,5.51,14l-.24-.28c-.18,2.1-.32,3.78-.44,5.16-.1,1.2-.15,2.14-.16,2.9a18.87,18.87,0,0,0,.14,3.08C5,26.47,5.12,28,4.17,35.27l1.44-.79C8.7,35.84,3.78,47.35,5,55.78l.82-3c1.06,4.61-4.21,12.87-4.6,17.5-.27,1-.43-1.59-.63-3-1.82,12.11,1.89,1.57,2.32,10.59C1.87,79.49.3,75.69.11,81.76c-.82,3,3.3,17.61,1.35,25.9.78-1.83,1.57-3.64,2.16.55.28,6.42-3,17.36-.5,23.16-.21.82-.42,1.13-.61,1.16.64,4.91,1.06,16,2.4,18.92C-.06,156,7.32,182,2.74,181.86L3,197l-.47-.4c-.31,9.66.79,13.07,1.89,16.46-.31,2.24-.74.61-1,.42C2.51,227.56,2.7,229,5,240.79L3.5,242c.87,3.2-2.33,20.39-.6,34.22-.16-.13-.45-.42-.66-1.52C4,290.29-1.89,312,3.53,317.69L4.86,328c.42-13.29,2.35,2,3.25-3.48.32,5.22-1.63,13.51-1.91,7.09l.27-1c-2.82-2.36-1,16.51-2.92,16.16,0,8.28-.08,16.5-.28,24.63q-.16,6.11-.34,12.14-.18,9-.37,17.84l19.63.37q6.84.15,13.57.19l-2.82-2.19,8.55.12c2.24.52,3,1.72-3.09,1.63,1.93.75,5.22.22,7.58-.42Z" fill="#152d42"/></g></g></svg>